<svg width="33" height="33" viewBox="0 0 33 33" fill="none" xmlns="http://www.w3.org/2000/svg">
<path d="M21.2253 14.9503C21.0025 14.9494 20.7819 14.995 20.5778 15.0843C20.3736 15.1736 20.1904 15.3045 20.0398 15.4686C19.8892 15.6328 19.7745 15.8266 19.7031 16.0377C19.6317 16.2488 19.6052 16.4724 19.6253 16.6943H22.9213C22.9426 16.4641 22.9137 16.232 22.8367 16.014C22.7596 15.796 22.6363 15.5973 22.4751 15.4315C22.3139 15.2658 22.1187 15.1369 21.903 15.0539C21.6872 14.9708 21.456 14.9355 21.2253 14.9503Z" fill="white" fill-opacity="0.5"/>
<path d="M12.7934 16.7263H10.8254V19.8303H12.4254C14.0254 19.8303 14.7294 19.3023 14.7294 18.2303C14.7294 17.1583 13.9934 16.7263 12.7934 16.7263Z" fill="white" fill-opacity="0.5"/>
<path d="M14.1854 13.8783C14.1854 13.0303 13.6254 12.5183 12.6654 12.5183H10.8254V15.3023H12.1854C13.6094 15.3023 14.1854 14.7903 14.1854 13.8783Z" fill="white" fill-opacity="0.5"/>
<path d="M16.8094 0.246338C13.6449 0.246338 10.5515 1.18472 7.92028 2.94282C5.2891 4.70093 3.23834 7.19978 2.02734 10.1234C0.816335 13.047 0.499482 16.2641 1.11685 19.3678C1.73421 22.4715 3.25806 25.3224 5.4957 27.56C7.73334 29.7977 10.5843 31.3215 13.688 31.9389C16.7917 32.5563 20.0087 32.2394 22.9323 31.0284C25.856 29.8174 28.3548 27.7666 30.1129 25.1355C31.871 22.5043 32.8094 19.4108 32.8094 16.2463C32.8094 14.1452 32.3955 12.0646 31.5915 10.1234C30.7874 8.18219 29.6088 6.41837 28.1231 4.93263C26.6374 3.44689 24.8735 2.26834 22.9323 1.46427C20.9911 0.66019 18.9106 0.246338 16.8094 0.246338ZM13.1294 21.3663H8.80941V10.9663H13.1294C15.0014 10.9663 16.2334 11.9423 16.2334 13.5263C16.2555 14.0585 16.0872 14.5811 15.7588 15.0004C15.4304 15.4197 14.9633 15.7083 14.4414 15.8143C14.7722 15.822 15.0979 15.8971 15.3987 16.035C15.6994 16.1729 15.9689 16.3707 16.1905 16.6163C16.4122 16.862 16.5814 17.1502 16.6878 17.4635C16.7942 17.7768 16.8356 18.1085 16.8094 18.4383C16.8094 20.2943 15.2094 21.3663 13.1294 21.3663ZM18.8094 11.7663H23.6094V12.5663H18.8094V11.7663ZM24.8094 17.9263H19.5294V18.1503C19.5019 18.3935 19.5268 18.6397 19.6025 18.8724C19.6782 19.105 19.8028 19.3188 19.9681 19.4992C20.1334 19.6797 20.3354 19.8226 20.5606 19.9183C20.7857 20.0141 21.0288 20.0605 21.2734 20.0543C21.6168 20.1077 21.968 20.035 22.2621 19.8498C22.5561 19.6645 22.7733 19.3791 22.8734 19.0463H24.8094C24.637 19.8144 24.1876 20.4919 23.5471 20.9494C22.9065 21.407 22.1198 21.6124 21.3374 21.5263C20.8373 21.5768 20.3323 21.5171 19.8577 21.3514C19.3832 21.1858 18.9508 20.9181 18.5908 20.5673C18.2309 20.2165 17.9522 19.7911 17.7743 19.321C17.5965 18.8509 17.5238 18.3475 17.5614 17.8463V17.1423C17.5274 16.6567 17.5989 16.1694 17.7709 15.714C17.9429 15.2585 18.2113 14.8457 18.5578 14.5037C18.9044 14.1618 19.3207 13.8988 19.7784 13.7329C20.2361 13.5669 20.7242 13.5019 21.2094 13.5423C21.693 13.5113 22.1775 13.5843 22.6305 13.7563C23.0835 13.9283 23.4944 14.1954 23.8355 14.5395C24.1766 14.8837 24.44 15.2969 24.608 15.7514C24.776 16.2059 24.8447 16.6911 24.8094 17.1743V17.9263Z" fill="white" fill-opacity="0.5"/>
</svg>
