<svg width="33" height="33" viewBox="0 0 33 33" fill="none" xmlns="http://www.w3.org/2000/svg">
<path fill-rule="evenodd" clip-rule="evenodd" d="M16.4047 0.246338C7.3411 0.246338 0 7.58744 0 16.651C0 23.9101 4.69585 30.0414 11.2167 32.215C12.0369 32.3585 12.3445 31.8664 12.3445 31.4358C12.3445 31.0462 12.324 29.7543 12.324 28.3804C8.20235 29.1391 7.13605 27.3756 6.80795 26.4528C6.6234 25.9812 5.82367 24.5253 5.12647 24.1357C4.5523 23.8281 3.73207 23.0694 5.10596 23.0489C6.39783 23.0284 7.3206 24.2382 7.62819 24.7304C9.10461 27.2116 11.4628 26.5144 12.4061 26.0837C12.5496 25.0174 12.9802 24.2997 13.4519 23.8896C9.80181 23.4795 5.98772 22.0646 5.98772 15.7898C5.98772 14.0058 6.6234 12.5294 7.6692 11.381C7.50515 10.9709 6.93099 9.28943 7.83325 7.03378C7.83325 7.03378 9.20714 6.60316 12.3445 8.71527C13.6569 8.34616 15.0513 8.16161 16.4457 8.16161C17.8401 8.16161 19.2345 8.34616 20.5469 8.71527C23.6843 6.58265 25.0582 7.03378 25.0582 7.03378C25.9604 9.28943 25.3863 10.9709 25.2222 11.381C26.268 12.5294 26.9037 13.9853 26.9037 15.7898C26.9037 22.0851 23.0691 23.4795 19.4191 23.8896C20.0137 24.4023 20.5264 25.3865 20.5264 26.9245C20.5264 29.1186 20.5059 30.8821 20.5059 31.4358C20.5059 31.8664 20.8135 32.379 21.6337 32.215C28.1136 30.0414 32.8094 23.8896 32.8094 16.651C32.8094 7.58744 25.4683 0.246338 16.4047 0.246338Z" fill="white" fill-opacity="0.5"/>
</svg>
