<svg width="32" height="33" viewBox="0 0 32 33" fill="none" xmlns="http://www.w3.org/2000/svg">
<g clip-path="url(#clip0_30_57)">
<path d="M15.9999 0.246338C24.837 0.246338 32 7.41033 32 16.2464C32 25.0825 24.837 32.2463 15.9999 32.2463C7.1629 32.2463 0 25.0823 0 16.2464C0 7.41044 7.16301 0.246338 15.9999 0.246338Z" fill="white" fill-opacity="0.5"/>
<path d="M9.01599 22.2303H12.012V12.2443H9.01599V22.2303ZM20.688 11.8984C19.234 11.8984 17.933 12.4294 17.0101 13.6014V12.2115H14.0031V22.2304H17.0101V16.8124C17.0101 15.6674 18.0591 14.5504 19.3731 14.5504C20.687 14.5504 21.0111 15.6674 21.0111 16.7844V22.2294H24.0071V16.5614C24.007 12.6244 22.143 11.8984 20.688 11.8984ZM10.5 11.2464C11.328 11.2464 12 10.5743 12 9.7463C12 8.91829 11.328 8.24637 10.5 8.24637C9.67199 8.24637 8.99995 8.9184 8.99995 9.74641C8.99995 10.5744 9.67199 11.2464 10.5 11.2464Z" fill="#090E16"/>
</g>
<defs>
<clipPath id="clip0_30_57">
<rect width="32" height="32" fill="white" transform="translate(0 0.246338)"/>
</clipPath>
</defs>
</svg>
