<svg width="44" height="36" viewBox="0 0 44 36" fill="none" xmlns="http://www.w3.org/2000/svg">
<path d="M12.4304 13.5624C13.2933 12.8728 13.4338 11.6143 12.7442 10.7514C12.0546 9.88854 10.7961 9.74804 9.93324 10.4376L12.4304 13.5624ZM3 18.5385L1.75142 16.9761C1.25861 17.3699 0.980496 17.9732 1.00106 18.6037C1.02163 19.2342 1.33847 19.818 1.8559 20.1789L3 18.5385ZM9.93324 10.4376L1.75142 16.9761L4.24858 20.1009L12.4304 13.5624L9.93324 10.4376ZM1.8559 20.1789L16.8559 30.6404L19.1441 27.3596L4.1441 16.898L1.8559 20.1789Z" fill="white"/>
<path d="M31 12L40 19L31 26" stroke="#7B4AE2" stroke-width="4" stroke-linecap="round" stroke-linejoin="round"/>
<path d="M28 3L17 33" stroke="white" stroke-width="4" stroke-linecap="round" stroke-linejoin="round"/>
</svg>
