<svg width="76" height="56" viewBox="0 0 76 56" fill="none" xmlns="http://www.w3.org/2000/svg">
<path d="M24.1881 21.3089C25.4633 20.2511 25.6395 18.3598 24.5817 17.0846C23.5238 15.8094 21.6325 15.6332 20.3573 16.6911L24.1881 21.3089ZM13 26.6923L11.0846 24.3834C10.3709 24.9754 9.97109 25.8643 10.0016 26.7911C10.0322 27.7179 10.4896 28.5785 11.2407 29.1223L13 26.6923ZM20.3573 16.6911L11.0846 24.3834L14.9154 29.0012L24.1881 21.3089L20.3573 16.6911ZM11.2407 29.1223L28.2407 41.43L31.7593 36.57L14.7593 24.2623L11.2407 29.1223Z" fill="white"/>
<path d="M66 28C66 36.8366 58.8366 44 50 44C41.1634 44 34 36.8366 34 28C34 19.1634 41.1634 12 50 12C58.8366 12 66 19.1634 66 28Z" fill="#FB4646"/>
<path d="M46 20L56 28L46 36" stroke="#7B4AE2" stroke-width="4" stroke-linecap="round" stroke-linejoin="round"/>
<path d="M42 9L29 44" stroke="white" stroke-width="3" stroke-linecap="round" stroke-linejoin="round"/>
</svg>
