<svg width="25" height="25" viewBox="0 0 25 25" fill="none" xmlns="http://www.w3.org/2000/svg">
<path d="M4.55191 16.7416C3.43524 14.8576 3.04465 12.6308 3.45345 10.4792C3.86225 8.32766 5.04234 6.39929 6.77218 5.05615C8.50201 3.713 10.6626 3.04744 12.8484 3.18443C15.0342 3.32141 17.0948 4.25151 18.6434 5.80011C20.192 7.34872 21.1221 9.40933 21.2591 11.5951C21.3961 13.7809 20.7305 15.9415 19.3874 17.6713C18.0442 19.4012 16.1158 20.5812 13.9643 20.9901C11.8127 21.3989 9.5859 21.0083 7.70191 19.8916V19.8916L4.58941 20.7728C4.46189 20.8101 4.32669 20.8124 4.19797 20.7795C4.06925 20.7466 3.95176 20.6796 3.85781 20.5857C3.76386 20.4917 3.69691 20.3743 3.66399 20.2455C3.63106 20.1168 3.63337 19.9816 3.67066 19.8541L4.55191 16.7416Z" stroke="white" stroke-linecap="round" stroke-linejoin="round"/>
<path d="M14.5551 17.3978C13.5682 17.4003 12.5906 17.2078 11.6784 16.8313C10.7662 16.4548 9.93741 15.9017 9.23961 15.2039C8.5418 14.5061 7.98876 13.6773 7.61226 12.7651C7.23575 11.8529 7.0432 10.8753 7.04568 9.88846C7.04816 9.1939 7.32581 8.52862 7.81783 8.03837C8.30984 7.54811 8.97611 7.27284 9.67068 7.27284V7.27284C9.78527 7.27192 9.898 7.30192 9.99699 7.35966C10.096 7.4174 10.1776 7.50076 10.2332 7.60096L11.3301 9.51346C11.3953 9.62973 11.4288 9.76111 11.4271 9.89441C11.4255 10.0277 11.3888 10.1582 11.3207 10.2728L10.4394 11.7447C10.8908 12.7489 11.6947 13.5527 12.6988 14.0041L14.1707 13.1228C14.2853 13.0548 14.4158 13.0181 14.5491 13.0164C14.6824 13.0148 14.8138 13.0482 14.9301 13.1135L16.8426 14.2103C16.9428 14.2659 17.0261 14.3475 17.0839 14.4465C17.1416 14.5455 17.1716 14.6582 17.1707 14.7728C17.1682 15.4667 16.8922 16.1315 16.4024 16.623C15.9127 17.1145 15.2489 17.3929 14.5551 17.3978V17.3978Z" stroke="white" stroke-linecap="round" stroke-linejoin="round"/>
</svg>
